<svg xmlns="http://www.w3.org/2000/svg" viewBox="0 0 25 25"><path fill="#2b3344" d="M9.5,5h-2A2.5,2.5,0,0,0,5,7.5v2A2.5,2.5,0,0,0,7.5,12h2A2.5,2.5,0,0,0,12,9.5v-2A2.5,2.5,0,0,0,9.5,5Zm0,4H9v.5a.5.5,0,0,1-1,0V9H7.5a.5.5,0,0,1,0-1H8V7.5a.5.5,0,0,1,1,0V8h.5a.5.5,0,0,1,0,1Zm0,4h-2A2.5,2.5,0,0,0,5,15.5v2A2.5,2.5,0,0,0,7.5,20h2A2.5,2.5,0,0,0,12,17.5v-2A2.5,2.5,0,0,0,9.5,13Zm.06,3.85a.5.5,0,0,1,0,.71.5.5,0,0,1-.35.15.508.508,0,0,1-.36-.15l-.35-.35-.35.35a.508.508,0,0,1-.36.15.5.5,0,0,1-.35-.15.5.5,0,0,1,0-.71l.35-.35-.35-.35a.5.5,0,1,1,.71-.71l.35.35.35-.35a.5.5,0,1,1,.71.71l-.35.35ZM17.5,13h-2A2.5,2.5,0,0,0,13,15.5v2A2.5,2.5,0,0,0,15.5,20h2A2.5,2.5,0,0,0,20,17.5v-2A2.5,2.5,0,0,0,17.5,13Zm0,4.76h-2a.5.5,0,0,1-.5-.5.5.5,0,0,1,.5-.5h2a.5.5,0,0,1,.5.5A.5.5,0,0,1,17.5,17.76Zm0-1.52h-2a.5.5,0,0,1-.5-.5.5.5,0,0,1,.5-.5h2a.5.5,0,0,1,.5.5A.5.5,0,0,1,17.5,16.24ZM17.5,5h-2A2.5,2.5,0,0,0,13,7.5v2A2.5,2.5,0,0,0,15.5,12h2A2.5,2.5,0,0,0,20,9.5v-2A2.5,2.5,0,0,0,17.5,5Zm0,4h-2a.5.5,0,0,1,0-1h2a.5.5,0,0,1,0,1Z"/></svg>