<svg xmlns="http://www.w3.org/2000/svg" id="Layer_1" enable-background="new 0 0 64 64" viewBox="0 0 64 64"><linearGradient id="SVGID_1_" x1="35.099" x2="35.099" y1="14.786" y2="62.697" gradientUnits="userSpaceOnUse"><stop offset="0" stop-color="#fff" stop-opacity=".25"/><stop offset="1" stop-color="#f86c66"/></linearGradient><path fill="url(#SVGID_1_)" d="M27.5,16.9c5.8-2.9,12.9-2.9,18.7,0c2.1,1,4.1,2.5,5.2,4.5c2.3,4,0.9,9.3,2.8,13.6c1.1,2.5,3.2,4.3,5,6.3
			c1.9,2,3.6,4.2,3.8,6.9c0.2,2.4-1,4.8-2.6,6.5c-1.7,1.7-3.8,2.9-6,3.9c-11,4.9-23.9,5.3-35.1,1c-4-1.5-7.9-3.7-10.3-7.3
			C6.6,49,6.3,43.8,9.2,40.6c2-2.2,4.7-3.3,6.2-6c0.9-1.7,0.9-3.8,1.6-5.6C18.7,23.9,22.6,19.4,27.5,16.9z"/><path fill="#9495fa" d="M47.3,47.8L47.3,47.8c-0.4,0.4-0.9,0.7-1.5,0.8l-12,2L20,53c-1,0.2-1.9-0.2-2.4-0.9l6.3-15.6l4.3,8l7-17.3
					L47.3,47.8z"/><path fill="#0000db" d="M19.6,53.7c-1,0-1.9-0.5-2.5-1.2c-0.1-0.2-0.2-0.4-0.1-0.7l6.3-15.6c0.1-0.2,0.3-0.4,0.6-0.4
					c0.3,0,0.5,0.1,0.6,0.4l3.6,6.7l6.4-15.9c0.1-0.2,0.3-0.4,0.6-0.4c0.3,0,0.5,0.1,0.6,0.3l12.1,20.6c0.1,0.1,0.1,0.2,0.1,0.3v0
					c0,0.2-0.1,0.3-0.2,0.4c-0.5,0.6-1.1,0.9-1.9,1.1l-25.8,4.3C19.9,53.7,19.8,53.7,19.6,53.7z M18.4,51.9c0.4,0.3,0.9,0.5,1.5,0.4
					l25.8-4.3c0.3,0,0.5-0.1,0.7-0.3L35.2,28.7l-6.4,16c-0.1,0.2-0.3,0.4-0.6,0.4c-0.3,0-0.5-0.1-0.6-0.4L23.9,38L18.4,51.9z"/><path fill="#fff" d="M47.8,45.9l-6.7-36l0-0.2c-0.2-1.3-1.5-2.1-2.8-1.9l-8.1,1.4l0,0l-17.7,3c-1.3,0.2-2.2,1.4-2,2.7l6.7,36.2
					c0.1,0.4,0.2,0.7,0.4,0.9l6.3-15.6l4.3,8l7-17.3l12.1,20.6v0C47.7,47.3,47.9,46.6,47.8,45.9z"/><path fill="#0000db" d="M17.6,52.7c-0.2,0-0.4-0.1-0.6-0.3c-0.3-0.4-0.5-0.8-0.5-1.2L9.8,15c-0.1-0.8,0-1.6,0.5-2.2
					c0.5-0.7,1.2-1.1,2.1-1.3l17.6-3c0,0,0,0,0.1,0l8.1-1.4c1.7-0.3,3.3,0.8,3.6,2.4l0,0.2l6.7,36.1c0.2,0.9-0.1,1.7-0.6,2.4
					c-0.2,0.2-0.5,0.3-0.8,0.2c-0.2-0.1-0.3-0.2-0.4-0.4L35.2,28.7l-6.4,16c-0.1,0.2-0.3,0.4-0.6,0.4c-0.3,0-0.5-0.1-0.6-0.4
					L23.9,38l-5.7,14.3C18.1,52.5,17.9,52.7,17.6,52.7C17.7,52.7,17.6,52.7,17.6,52.7z M30.3,9.8C30.3,9.9,30.2,9.9,30.3,9.8
					l-17.7,3c-0.5,0.1-0.9,0.3-1.2,0.7c-0.2,0.3-0.3,0.8-0.3,1.2L17.7,50l5.5-13.8c0.1-0.2,0.3-0.4,0.6-0.4c0.3,0,0.5,0.1,0.6,0.4
					l3.6,6.7l6.4-15.9c0.1-0.2,0.3-0.4,0.6-0.4c0.3,0,0.5,0.1,0.6,0.3l11.4,19.3c0,0,0-0.1,0-0.1c0,0,0,0,0,0L40.4,9.8
					c-0.2-0.9-1.1-1.5-2-1.3L30.3,9.8z"/><path fill="#ff9d23" d="M30.4,22.2c0,2.4-2,4.3-4.5,4.3s-4.5-1.9-4.5-4.3s2-4.3,4.5-4.3S30.4,19.8,30.4,22.2z"/><path fill="#0000db" d="M25.9,27.2c-2.9,0-5.2-2.2-5.2-5c0-2.7,2.3-5,5.2-5c2.9,0,5.2,2.2,5.2,5C31.1,24.9,28.8,27.2,25.9,27.2z
					 M25.9,18.6c-2.1,0-3.8,1.6-3.8,3.6s1.7,3.6,3.8,3.6c2.1,0,3.8-1.6,3.8-3.6S28,18.6,25.9,18.6z"/><g><path fill="#fed3be" d="M59.7,15.9l-6.4,35c-0.3,1.6-1.9,2.7-3.6,2.4l-16-2.7l12-2c0.6-0.1,1.1-0.4,1.5-0.8
					c0.4-0.5,0.6-1.2,0.5-1.8l-6.7-36l16.1,2.6C58.9,12.8,60,14.3,59.7,15.9z"/><path fill="#0000db" d="M50.3,54c-0.2,0-0.4,0-0.6-0.1l-16-2.7c-0.3-0.1-0.5-0.3-0.5-0.6s0.2-0.6,0.5-0.6l12-2
					c0.4-0.1,0.8-0.3,1.1-0.6c0.3-0.4,0.4-0.9,0.4-1.3l-6.7-36c0-0.2,0-0.4,0.2-0.6c0.1-0.2,0.4-0.2,0.6-0.2l16.1,2.6
					c1,0.2,1.9,0.7,2.5,1.5c0.5,0.8,0.8,1.7,0.6,2.7L54,51C53.7,52.7,52.1,54,50.3,54z M37.7,50.6l12.2,2c1.3,0.2,2.6-0.6,2.8-1.9
					l6.4-35c0,0,0,0,0,0c0.1-0.6,0-1.2-0.4-1.7c-0.4-0.5-1-0.9-1.6-1l-15.2-2.5l6.5,35.1c0.2,0.8-0.1,1.7-0.6,2.4
					c-0.5,0.6-1.1,0.9-1.9,1.1L37.7,50.6z"/></g><polyline fill="none" stroke="#ff9d23" stroke-linecap="round" stroke-linejoin="round" stroke-miterlimit="10" stroke-width="1.422" points="6 35.1 7.6 33.6 8.9 34.9"/><polyline fill="none" stroke="#9495fa" stroke-linecap="round" stroke-linejoin="round" stroke-miterlimit="10" stroke-width="1.422" points="39.3 3.6 40.8 2 42.2 3.4"/><line x1="3.7" x2="1.6" y1="48.1" y2="50.1" fill="none" stroke="#9495fa" stroke-linecap="round" stroke-linejoin="round" stroke-miterlimit="10" stroke-width="1.422"/><line x1="62.2" x2="59.8" y1="33.9" y2="36.3" fill="none" stroke="#ff4b4d" stroke-linecap="round" stroke-linejoin="round" stroke-miterlimit="10" stroke-width="1.422"/><g><path fill="#0000db" d="M32.5,60.2c-0.2,0-0.4-0.1-0.5-0.2c-0.3-0.3-0.3-0.7,0-1l2.4-2.4c0.3-0.3,0.7-0.3,1,0c0.3,0.3,0.3,0.7,0,1
			L33,60C32.9,60.2,32.7,60.2,32.5,60.2z"/></g><line x1="20" x2="17.6" y1="4.6" y2="7" fill="none" stroke="#ff9d23" stroke-linecap="round" stroke-linejoin="round" stroke-miterlimit="10" stroke-width="1.422"/></svg>