<svg xmlns="http://www.w3.org/2000/svg" enable-background="new 0 0 80 80" viewBox="0 0 80 80"><path d="M5.015625,32.1020508c-0.0908203,0.9677734,0.2011719,1.9140625,0.8193359,2.6611328
	c0.1162109,0.140625,11.7285156,13.5541992,29.1816406,10.8452148c-1.0664062,6.953125,0.859375,17.921875,9.7353516,28.1376953
	c0.6376953,0.734375,1.5234375,1.1757812,2.4941406,1.2441406c0.0878906,0.0058594,0.1738281,0.0087891,0.2607422,0.0087891
	c0.8769531,0,1.7148438-0.3125,2.3867188-0.8955078c0.0644531-0.0566406,0.1259766-0.1132812,0.1855469-0.1728516
	c1.3457031-1.3457031,1.4208984-3.5253906,0.171875-4.9628906c-0.2800293-0.3223267-0.5491333-0.6448975-0.8109741-0.9673462
	l18.5618896-18.5609741C68.3242188,49.7011719,68.6466064,49.9700928,68.96875,50.25
	c1.4375,1.2490234,3.6162109,1.1738281,4.9707031-0.1796875c0.0556641-0.0566406,0.1103516-0.1162109,0.1679688-0.1806641
	c0.6376953-0.734375,0.9521484-1.6738281,0.8837891-2.6445312s-0.5097656-1.8564453-1.2441406-2.4941406
	C63.5302734,35.875,52.5634766,33.9516602,45.6083984,35.0166016C48.3173828,17.5952148,34.90625,5.9511719,34.7666016,5.8359375
	C33.2275391,4.5625,30.9316406,4.7753906,29.6513672,6.3125c-1.2822266,1.5366211-1.0771484,3.8354492,0.4570312,5.125
	c0.0233765,0.0197144,0.4777832,0.4108276,1.1639404,1.1359253L12.5738525,31.2723389
	c-0.7235107-0.6849976-1.1133423-1.1381836-1.1324463-1.1610107c-1.28125-1.5380859-3.5800781-1.75-5.1191406-0.4741211
	C5.5712891,30.2578125,5.1074219,31.1333008,5.015625,32.1020508z M48.215271,66.3970947
	c-0.8233643-1.1381226-1.5435181-2.2716064-2.1655273-3.3922119l16.9552612-16.9561768
	c1.1210327,0.6220703,2.2550049,1.3424072,3.3934937,2.1660156L48.215271,66.3970947z M43.1953125,43.1972656
	c1.9741211-0.7114868,6.1795044-1.3781738,11.3676758-0.3100586L42.8870239,54.5631714
	C41.8182373,49.3754883,42.484314,45.1709595,43.1953125,43.1972656z M56.8279419,43.4503784
	c1.3895874,0.4075317,2.8319702,0.9470215,4.3062744,1.6409912L45.0922241,61.1342773
	c-0.6941528-1.4744263-1.2340088-2.9168091-1.6417847-4.3063965L56.8279419,43.4503784z M32.5915527,14.0822754
	c0.7189331,0.883667,1.5171509,1.9768066,2.2955933,3.2630005L17.3449707,34.8874512
	c-1.2863159-0.7784424-2.3792114-1.5767212-3.2625122-2.2955933L32.5915527,14.0822754z M37.5673828,37.5664062
	c-4.435791,1.3170776-8.4403687,1.3054199-11.9069214,0.6085815L38.175293,25.6601562
	C38.8726807,29.1270752,38.8847046,33.1315308,37.5673828,37.5664062z M23.4009399,37.6063843
	c-1.5480957-0.4682007-2.9616699-1.062439-4.2371826-1.7095947l16.7327271-16.7327271
	c0.6472778,1.2755127,1.2415771,2.6890869,1.7098999,4.2368774L23.4009399,37.6063843z M7.5966797,31.1777344
	c0.6943359-0.5732422,1.7285156-0.4790039,2.3105469,0.2167969c0.0271606,0.0324097,0.7080078,0.8215942,1.9549561,1.9224854
	c0.0133057,0.0150146,0.0179443,0.0343018,0.0323486,0.0487061c0.0262451,0.0262451,0.0606079,0.0363159,0.0888672,0.059021
	c1.199707,1.0470581,2.8961792,2.3548584,5.0296631,3.5700684c0.050354,0.0288696,0.0965576,0.0631104,0.1501465,0.0825806
	c1.7526855,0.9853516,3.7902222,1.902771,6.0866089,2.5603027c0.109436,0.0522461,0.223877,0.0802612,0.3422852,0.0904541
	c4.2451782,1.1551514,9.3344727,1.4146118,15.0778198-0.4083252c0.3095703-0.0981445,0.5517578-0.3408203,0.6503906-0.6503906
	c1.8204956-5.736145,1.5632324-10.8203125,0.4112549-15.0628662c-0.0088501-0.1246338-0.0397949-0.2449341-0.0951538-0.3598633
	c-0.654541-2.2848511-1.5664062-4.3131714-2.5462646-6.0599365c-0.0350952-0.1072388-0.0935059-0.2041626-0.1657715-0.296875
	c-1.1945801-2.0750122-2.4714966-3.7289429-3.4979248-4.9056396c-0.0231323-0.0289307-0.0334473-0.0639038-0.0602417-0.0906982
	c-0.0146484-0.0146484-0.0343628-0.0194702-0.0496826-0.03302c-1.1001587-1.24646-1.8887329-1.9271851-1.9210205-1.9542847
	c-0.6933594-0.5820312-0.7861328-1.6196289-0.2089844-2.3125c0.5791016-0.6938477,1.6123047-0.7905273,2.2988281-0.2216797
	c0.1347656,0.1142578,13.390625,11.6142578,9.9023438,28.7006836c-0.0683594,0.3339844,0.0380859,0.6801758,0.2832031,0.9174805
	c0.2451172,0.2382812,0.5927734,0.3344727,0.9248047,0.2563477c6.34375-1.4897461,17.4404297-0.0205078,27.8388672,9.0141602
	c0.6835938,0.59375,0.7568359,1.6328125,0.1660156,2.3134766l-0.0830078,0.0898438
	c-0.6054688,0.6074219-1.5878906,0.6396484-2.2363281,0.0761719c-12.2177734-10.6123047-24.5341797-8.8198242-28.25-7.234375
	c-0.2373047,0.1015625-0.4257812,0.2900391-0.5273438,0.5273438c-0.0566406,0.1328125-5.3515625,13.7558594,7.2373047,28.2470703
	c0.5634766,0.6474609,0.5302734,1.6298828-0.0761719,2.2363281l-0.0869141,0.0800781
	c-0.3310547,0.2871094-0.7607422,0.4287109-1.1914062,0.3984375c-0.4375-0.0302734-0.8369141-0.2304688-1.125-0.5615234
	c-9.0341797-10.3984375-10.5029297-21.4951172-9.0146484-27.8388672c0.078125-0.3320312-0.0185547-0.6806641-0.2558594-0.9248047
	c-0.1904297-0.1962891-0.4501953-0.3037109-0.7177734-0.3037109c-0.0664062,0-0.1337891,0.0068359-0.2001953,0.0205078
	c-17.0898438,3.4853516-28.5859375-9.7666016-28.6953125-9.8964844c-0.2802734-0.3383789-0.4121094-0.7646484-0.3710938-1.2006836
	C7.0478516,31.8530273,7.2578125,31.4584961,7.5966797,31.1777344z"/></svg>